<?xml version="1.0" encoding="utf-8" standalone="no"?>
<!DOCTYPE svg PUBLIC "-//W3C//DTD SVG 1.1//EN"
  "http://www.w3.org/Graphics/SVG/1.1/DTD/svg11.dtd">
<!-- Created with matplotlib (http://matplotlib.org/) -->
<svg height="273pt" version="1.1" viewBox="0 0 564 273" width="564pt" xmlns="http://www.w3.org/2000/svg" xmlns:xlink="http://www.w3.org/1999/xlink">
 <defs>
  <style type="text/css">
*{stroke-linecap:butt;stroke-linejoin:round;}
  </style>
 </defs>
 <g id="figure_1">
  <g id="patch_1">
   <path d="
M0 273.861
L564.48 273.861
L564.48 0
L0 0
z
" style="fill:#ffffff;"/>
  </g>
  <g id="axes_1">
   <g id="patch_2">
    <path d="
M7.2 264.301
L557.28 264.301
L557.28 9.55972
L7.2 9.55972
z
" style="fill:#ffffff;"/>
   </g>
   <g id="line2d_1">
    <path clip-path="url(#pda5abad45c)" d="
M7.07899 129.886
L8.62856 127.234
L10.3995 123.719
L12.1705 119.704
L14.1628 114.624
L16.3765 108.347
L19.0329 100.071
L22.3534 88.9032
L31.8723 56.3063
L34.3073 48.9687
L36.521 43.0142
L38.2919 38.8407
L39.8415 35.6747
L41.3911 33.0018
L42.7193 31.1278
L44.0475 29.6567
L45.1544 28.7486
L46.2612 28.1359
L47.1467 27.8613
L48.0322 27.78
L48.9176 27.8928
L49.8031 28.1996
L50.9099 28.8549
L52.0168 29.8094
L53.1236 31.0586
L54.4518 32.9378
L55.78 35.2187
L57.3296 38.3649
L58.8792 42.0031
L60.6502 46.7164
L62.6425 52.6522
L65.0775 60.6786
L67.9553 71.0051
L72.1613 87.0501
L78.3596 110.662
L81.4588 121.562
L83.8938 129.388
L86.1075 135.811
L88.0998 140.956
L89.8708 144.985
L91.6417 148.475
L93.1913 151.074
L94.7409 153.244
L96.0691 154.762
L97.3973 155.967
L98.7255 156.865
L100.054 157.461
L101.161 157.736
L102.267 157.815
L103.596 157.662
L104.924 157.255
L106.252 156.608
L107.802 155.574
L109.351 154.27
L111.122 152.489
L113.114 150.175
L115.55 147.004
L119.091 141.983
L125.511 132.833
L128.168 129.436
L130.603 126.68
L132.595 124.734
L134.587 123.1
L136.358 121.93
L138.129 121.037
L139.679 120.487
L141.228 120.156
L142.778 120.041
L144.327 120.138
L145.877 120.442
L147.648 121.029
L149.419 121.856
L151.411 123.049
L153.625 124.664
L156.06 126.732
L158.938 129.478
L163.144 133.835
L169.563 140.483
L172.663 143.371
L175.319 145.553
L177.754 147.261
L179.968 148.538
L181.96 149.445
L183.952 150.109
L185.945 150.524
L187.937 150.687
L189.929 150.599
L191.922 150.265
L193.914 149.693
L195.906 148.893
L198.12 147.755
L200.555 146.227
L203.211 144.269
L206.089 141.859
L209.631 138.579
L214.501 133.719
L224.02 124.156
L228.005 120.506
L231.547 117.569
L234.646 115.278
L237.745 113.272
L240.623 111.673
L243.501 110.329
L246.378 109.234
L249.256 108.376
L252.355 107.694
L255.454 107.237
L258.996 106.947
L262.981 106.848
L268.294 106.954
L282.461 107.353
L288.881 107.234
L303.049 106.862
L307.033 107.047
L310.354 107.408
L313.453 107.957
L316.331 108.679
L319.209 109.626
L322.086 110.816
L324.964 112.257
L327.842 113.955
L330.72 115.904
L333.819 118.272
L337.139 121.091
L340.903 124.58
L345.773 129.42
L355.956 139.635
L359.498 142.818
L362.375 145.119
L365.032 146.956
L367.467 148.356
L369.681 149.364
L371.673 150.039
L373.665 150.481
L375.657 150.679
L377.428 150.646
L379.199 150.414
L381.192 149.915
L383.184 149.169
L385.176 148.184
L387.39 146.826
L389.604 145.211
L392.26 142.978
L395.359 140.046
L399.565 135.711
L406.428 128.605
L409.306 125.949
L411.741 123.984
L413.954 122.487
L415.947 121.414
L417.718 120.704
L419.488 120.244
L421.038 120.057
L422.588 120.08
L424.137 120.318
L425.687 120.774
L427.236 121.448
L429.007 122.481
L430.778 123.786
L432.771 125.562
L434.763 127.637
L436.977 130.251
L439.633 133.734
L443.396 139.081
L449.373 147.603
L452.03 150.978
L454.022 153.19
L455.793 154.86
L457.342 156.052
L458.892 156.96
L460.22 157.489
L461.548 157.771
L462.655 157.806
L463.762 157.65
L464.869 157.295
L465.976 156.736
L467.304 155.788
L468.632 154.531
L469.96 152.961
L471.289 151.074
L472.838 148.475
L474.388 145.451
L476.159 141.489
L478.151 136.414
L480.143 130.729
L482.357 123.768
L485.014 114.658
L488.334 102.405
L499.624 59.9185
L502.059 51.9623
L504.273 45.4856
L506.044 40.9155
L507.814 36.9543
L509.364 34.029
L510.692 31.947
L512.02 30.274
L513.127 29.201
L514.234 28.4256
L515.341 27.9513
L516.226 27.79
L517.112 27.8228
L517.997 28.0492
L518.883 28.4678
L519.99 29.2584
L521.097 30.341
L522.203 31.7084
L523.532 33.7132
L525.081 36.5305
L526.631 39.8307
L528.402 44.1431
L530.394 49.6044
L532.829 57.0075
L535.707 66.5186
L541.02 85.0539
L545.226 99.3511
L548.104 108.347
L550.539 115.217
L552.531 120.233
L554.523 124.646
L556.294 128.032
L557.401 129.886
L557.401 129.886" style="fill:none;stroke:#0000ff;stroke-linecap:square;stroke-width:2.0;"/>
   </g>
   <g id="line2d_2">
    <path clip-path="url(#pda5abad45c)" d="
M7.07899 124.334
L8.4072 126.527
L9.95678 129.517
L11.7277 133.467
L13.72 138.52
L15.9337 144.772
L18.8115 153.639
L28.5517 184.391
L30.7654 190.322
L32.5364 194.508
L34.3073 198.112
L35.8569 200.735
L37.1851 202.561
L38.2919 203.77
L39.3988 204.685
L40.5056 205.301
L41.3911 205.575
L42.2766 205.654
L43.162 205.538
L44.0475 205.228
L45.1544 204.57
L46.2612 203.617
L47.368 202.377
L48.6963 200.522
L50.0245 198.288
L51.574 195.235
L53.345 191.21
L55.3373 186.09
L57.7724 179.15
L60.8715 169.585
L68.8408 144.634
L71.2758 137.844
L73.4895 132.32
L75.4818 127.979
L77.2528 124.684
L78.8024 122.267
L80.1306 120.556
L81.4588 119.186
L82.787 118.161
L83.8938 117.571
L85.0007 117.219
L86.1075 117.1
L87.2144 117.211
L88.3212 117.543
L89.4281 118.089
L90.7563 119.013
L92.0845 120.21
L93.6341 121.925
L95.405 124.256
L97.3973 127.276
L99.8324 131.403
L103.374 137.903
L108.466 147.23
L111.122 151.617
L113.336 154.829
L115.107 157.036
L116.878 158.877
L118.427 160.159
L119.756 161.001
L121.084 161.595
L122.412 161.937
L123.74 162.023
L125.068 161.853
L126.397 161.429
L127.725 160.755
L129.053 159.839
L130.603 158.475
L132.152 156.812
L133.923 154.573
L135.915 151.668
L138.129 148.032
L140.786 143.228
L144.549 135.916
L150.968 123.396
L153.846 118.291
L156.281 114.419
L158.274 111.631
L160.266 109.231
L162.037 107.455
L163.586 106.192
L165.136 105.213
L166.686 104.525
L168.014 104.169
L169.342 104.031
L170.67 104.109
L171.998 104.4
L173.327 104.902
L174.876 105.745
L176.426 106.855
L178.197 108.435
L179.968 110.324
L181.96 112.786
L184.174 115.893
L186.609 119.691
L189.708 124.971
L193.914 132.627
L201.883 147.217
L205.204 152.81
L208.082 157.24
L210.738 160.911
L213.173 163.88
L215.387 166.228
L217.379 168.042
L219.371 169.568
L221.364 170.803
L223.135 171.659
L224.906 172.291
L226.677 172.704
L228.447 172.907
L230.218 172.908
L232.211 172.681
L234.203 172.227
L236.417 171.481
L238.63 170.503
L241.065 169.193
L243.943 167.378
L247.264 164.997
L251.248 161.853
L257.447 156.643
L267.408 148.288
L273.828 143.227
L281.797 137.258
L292.202 129.439
L298.4 124.489
L305.705 118.351
L314.56 110.933
L318.544 107.88
L321.865 105.613
L324.743 103.925
L327.178 102.745
L329.391 101.903
L331.605 101.307
L333.597 101.003
L335.59 100.935
L337.361 101.087
L339.132 101.447
L340.903 102.023
L342.674 102.823
L344.445 103.849
L346.437 105.278
L348.429 106.997
L350.421 109
L352.635 111.552
L355.07 114.732
L357.727 118.611
L360.604 123.233
L363.925 128.994
L368.795 137.938
L375.215 149.669
L378.314 154.886
L380.97 158.938
L383.184 161.933
L385.176 164.28
L386.947 166.056
L388.718 167.514
L390.268 168.511
L391.817 169.236
L393.146 169.633
L394.474 169.818
L395.802 169.788
L397.13 169.541
L398.458 169.077
L399.787 168.397
L401.336 167.337
L402.886 165.995
L404.657 164.132
L406.428 161.939
L408.42 159.109
L410.634 155.57
L413.29 150.874
L416.832 144.091
L425.023 128.18
L427.679 123.601
L429.893 120.213
L431.885 117.576
L433.656 115.605
L435.206 114.198
L436.755 113.106
L438.083 112.432
L439.412 112.008
L440.74 111.838
L442.068 111.924
L443.396 112.265
L444.724 112.86
L446.053 113.702
L447.602 114.984
L449.152 116.574
L450.923 118.738
L452.915 121.565
L455.129 125.114
L458.007 130.192
L466.861 146.228
L469.075 149.605
L470.846 151.936
L472.396 153.651
L473.945 155.022
L475.273 155.898
L476.38 156.402
L477.487 156.69
L478.594 156.755
L479.701 156.591
L480.808 156.191
L481.914 155.553
L483.021 154.675
L484.349 153.305
L485.678 151.594
L487.227 149.177
L488.777 146.323
L490.548 142.56
L492.54 137.745
L494.754 131.771
L497.41 123.925
L501.395 111.349
L506.486 95.3716
L509.143 87.7708
L511.356 82.119
L513.127 78.162
L514.677 75.1749
L516.226 72.6773
L517.555 70.9542
L518.662 69.8276
L519.768 68.9917
L520.875 68.4535
L521.761 68.2403
L522.646 68.2219
L523.532 68.3987
L524.417 68.7703
L525.524 69.5065
L526.631 70.5399
L527.738 71.8636
L529.066 73.8221
L530.394 76.1654
L531.944 79.353
L533.715 83.5389
L535.707 88.8463
L538.142 96.0157
L541.462 106.566
L547.882 127.106
L550.317 134.14
L552.531 139.863
L554.302 143.88
L556.073 147.334
L557.401 149.527
L557.401 149.527" style="fill:none;stroke:#ff0000;stroke-linecap:square;stroke-width:2.0;"/>
   </g>
   <g id="line2d_3">
    <path clip-path="url(#pda5abad45c)" d="
M7.07899 144.451
L9.0713 137.811
L10.8422 132.693
L12.3918 128.907
L13.72 126.216
L15.0483 124.059
L16.1551 122.677
L17.2619 121.675
L18.1474 121.143
L19.0329 120.847
L19.9184 120.783
L20.8038 120.941
L21.6893 121.313
L22.7961 122.064
L23.903 123.109
L25.2312 124.713
L26.7808 127.004
L28.5517 130.063
L30.9868 134.784
L36.9637 146.612
L38.7347 149.584
L40.2843 151.803
L41.6125 153.366
L42.9407 154.577
L44.0475 155.296
L45.1544 155.737
L46.0398 155.881
L46.9253 155.837
L47.8108 155.602
L48.9176 155.039
L50.0245 154.178
L51.1313 153.026
L52.4595 151.27
L53.7877 149.129
L55.3373 146.179
L57.1083 142.281
L59.1006 137.336
L61.757 130.086
L69.7263 107.778
L71.7186 102.998
L73.4895 99.2773
L75.0391 96.5029
L76.3673 94.5223
L77.6955 92.9355
L78.8024 91.9282
L79.9092 91.216
L81.0161 90.8041
L81.9015 90.6921
L82.787 90.7733
L83.6725 91.0461
L84.7793 91.6521
L85.8862 92.545
L86.993 93.714
L88.3212 95.4619
L89.8708 97.941
L91.4204 100.843
L93.4127 105.097
L95.8477 110.897
L100.054 121.648
L103.596 130.429
L105.809 135.349
L107.58 138.802
L109.13 141.391
L110.458 143.244
L111.786 144.729
L112.893 145.667
L114 146.319
L115.107 146.678
L115.992 146.748
L116.878 146.623
L117.763 146.302
L118.87 145.625
L119.977 144.644
L121.084 143.363
L122.412 141.442
L123.74 139.117
L125.29 135.925
L127.061 131.697
L129.053 126.293
L131.267 119.634
L134.366 109.515
L142.114 83.7871
L144.549 76.6777
L146.541 71.543
L148.312 67.6055
L149.862 64.7084
L151.19 62.6689
L152.518 61.0648
L153.625 60.0753
L154.732 59.4118
L155.617 59.1206
L156.503 59.0457
L157.388 59.189
L158.274 59.5515
L159.159 60.1337
L160.266 61.1693
L161.373 62.544
L162.48 64.2532
L163.808 66.7357
L165.136 69.6746
L166.686 73.6546
L168.457 78.8861
L170.449 85.5673
L172.663 93.8599
L175.098 103.859
L178.197 117.574
L183.51 142.345
L188.38 164.691
L191.479 177.925
L194.135 188.318
L196.349 196.16
L198.341 202.502
L200.334 208.112
L202.105 212.454
L203.654 215.741
L205.204 218.542
L206.753 220.855
L208.082 222.451
L209.41 223.693
L210.517 224.463
L211.623 224.997
L212.73 225.299
L213.837 225.376
L214.944 225.236
L216.051 224.885
L217.379 224.199
L218.707 223.237
L220.035 222.018
L221.585 220.292
L223.356 217.955
L225.348 214.915
L227.562 211.101
L230.218 206.043
L233.539 199.196
L239.516 186.23
L244.607 175.404
L248.149 168.373
L251.248 162.706
L254.126 157.917
L256.783 153.936
L259.218 150.671
L261.653 147.778
L263.866 145.468
L266.08 143.458
L268.294 141.738
L270.507 140.298
L272.721 139.127
L274.935 138.214
L277.149 137.55
L279.362 137.128
L281.576 136.941
L283.79 136.988
L286.003 137.268
L288.217 137.787
L290.431 138.549
L292.644 139.564
L294.858 140.841
L297.072 142.392
L299.285 144.227
L301.499 146.356
L303.713 148.787
L306.148 151.815
L308.583 155.215
L311.239 159.339
L313.896 163.878
L316.773 169.222
L320.094 175.86
L324.3 184.788
L333.597 204.712
L336.475 210.291
L338.91 214.552
L340.903 217.637
L342.674 220.02
L344.445 222.018
L345.994 223.416
L347.322 224.332
L348.651 224.971
L349.757 225.281
L350.864 225.378
L351.971 225.257
L353.078 224.909
L354.185 224.328
L355.292 223.51
L356.62 222.209
L357.948 220.554
L359.276 218.542
L360.826 215.741
L362.375 212.454
L364.146 208.112
L365.917 203.162
L367.91 196.899
L370.123 189.137
L372.558 179.725
L375.436 167.612
L378.978 151.636
L389.604 102.918
L392.26 92.135
L394.474 84.0145
L396.466 77.513
L398.237 72.4587
L399.787 68.6453
L401.336 65.4364
L402.664 63.1879
L403.771 61.6787
L404.878 60.507
L405.985 59.6765
L406.87 59.259
L407.756 59.061
L408.641 59.0815
L409.527 59.3189
L410.412 59.7703
L411.519 60.6305
L412.626 61.8111
L413.733 63.3015
L415.061 65.4809
L416.611 68.5298
L418.16 72.0786
L419.931 76.6777
L422.145 83.1089
L424.801 91.57
L429.893 108.77
L433.435 120.326
L435.87 127.547
L437.862 132.808
L439.633 136.887
L441.183 139.936
L442.511 142.128
L443.839 143.911
L444.946 145.073
L446.053 145.933
L447.16 146.487
L448.045 146.71
L448.93 146.737
L449.816 146.57
L450.701 146.212
L451.808 145.502
L452.915 144.508
L454.243 142.96
L455.572 141.048
L457.121 138.398
L458.892 134.885
L460.884 130.429
L463.541 123.909
L470.846 105.601
L472.838 101.289
L474.609 97.941
L476.159 95.4619
L477.487 93.714
L478.815 92.344
L479.922 91.5077
L481.029 90.96
L481.914 90.7349
L482.8 90.7019
L483.685 90.8623
L484.571 91.216
L485.678 91.9282
L486.784 92.9355
L487.891 94.2299
L489.22 96.1465
L490.769 98.852
L492.319 102.017
L494.09 106.123
L496.303 111.841
L499.402 120.543
L504.937 136.172
L507.15 141.758
L509.143 146.179
L510.692 149.129
L512.242 151.59
L513.57 153.279
L514.677 154.374
L515.784 155.175
L516.891 155.678
L517.776 155.866
L518.662 155.863
L519.547 155.671
L520.654 155.175
L521.761 154.401
L522.868 153.366
L524.196 151.803
L525.745 149.584
L527.516 146.612
L529.73 142.419
L537.035 128.102
L538.806 125.325
L540.134 123.603
L541.462 122.25
L542.569 121.439
L543.455 121.014
L544.34 120.802
L545.226 120.81
L546.111 121.047
L546.997 121.519
L547.882 122.231
L548.989 123.461
L550.096 125.07
L551.203 127.055
L552.531 129.92
L554.08 133.897
L555.63 138.505
L557.401 144.451
L557.401 144.451" style="fill:none;stroke:#00b200;stroke-linecap:square;stroke-width:2.0;"/>
   </g>
   <g id="matplotlib.axis_1">
    <g id="xtick_1">
     <g id="line2d_4">
      <defs>
       <path d="
M0 0
L0 -4" id="m93b0483c22" style="stroke:#000000;stroke-width:0.5;"/>
      </defs>
      <g>
       <use style="stroke:#000000;stroke-width:0.5;" x="55.5586813187" xlink:href="#m93b0483c22" y="136.930487241"/>
      </g>
     </g>
     <g id="text_1">
      <!-- -6 -->
      <defs>
       <path d="
M33.0156 40.375
Q26.375 40.375 22.4844 35.8281
Q18.6094 31.2969 18.6094 23.3906
Q18.6094 15.5312 22.4844 10.9531
Q26.375 6.39062 33.0156 6.39062
Q39.6562 6.39062 43.5312 10.9531
Q47.4062 15.5312 47.4062 23.3906
Q47.4062 31.2969 43.5312 35.8281
Q39.6562 40.375 33.0156 40.375
M52.5938 71.2969
L52.5938 62.3125
Q48.875 64.0625 45.0938 64.9844
Q41.3125 65.9219 37.5938 65.9219
Q27.8281 65.9219 22.6719 59.3281
Q17.5312 52.7344 16.7969 39.4062
Q19.6719 43.6562 24.0156 45.9219
Q28.375 48.1875 33.5938 48.1875
Q44.5781 48.1875 50.9531 41.5156
Q57.3281 34.8594 57.3281 23.3906
Q57.3281 12.1562 50.6875 5.35938
Q44.0469 -1.42188 33.0156 -1.42188
Q20.3594 -1.42188 13.6719 8.26562
Q6.98438 17.9688 6.98438 36.375
Q6.98438 53.6562 15.1875 63.9375
Q23.3906 74.2188 37.2031 74.2188
Q40.9219 74.2188 44.7031 73.4844
Q48.4844 72.75 52.5938 71.2969" id="BitstreamVeraSans-Roman-36"/>
       <path d="
M4.89062 31.3906
L31.2031 31.3906
L31.2031 23.3906
L4.89062 23.3906
z
" id="BitstreamVeraSans-Roman-2d"/>
      </defs>
      <g transform="translate(48.9200094437 152.328143491)scale(0.15 -0.15)">
       <use xlink:href="#BitstreamVeraSans-Roman-2d"/>
       <use x="36.083984375" xlink:href="#BitstreamVeraSans-Roman-36"/>
      </g>
     </g>
    </g>
    <g id="xtick_2">
     <g id="line2d_5">
      <g>
       <use style="stroke:#000000;stroke-width:0.5;" x="131.119120879" xlink:href="#m93b0483c22" y="136.930487241"/>
      </g>
     </g>
     <g id="text_2">
      <!-- -4 -->
      <defs>
       <path d="
M37.7969 64.3125
L12.8906 25.3906
L37.7969 25.3906
z

M35.2031 72.9062
L47.6094 72.9062
L47.6094 25.3906
L58.0156 25.3906
L58.0156 17.1875
L47.6094 17.1875
L47.6094 0
L37.7969 0
L37.7969 17.1875
L4.89062 17.1875
L4.89062 26.7031
z
" id="BitstreamVeraSans-Roman-34"/>
      </defs>
      <g transform="translate(124.428886504 152.328143491)scale(0.15 -0.15)">
       <use xlink:href="#BitstreamVeraSans-Roman-2d"/>
       <use x="36.083984375" xlink:href="#BitstreamVeraSans-Roman-34"/>
      </g>
     </g>
    </g>
    <g id="xtick_3">
     <g id="line2d_6">
      <g>
       <use style="stroke:#000000;stroke-width:0.5;" x="206.67956044" xlink:href="#m93b0483c22" y="136.930487241"/>
      </g>
     </g>
     <g id="text_3">
      <!-- -2 -->
      <defs>
       <path d="
M19.1875 8.29688
L53.6094 8.29688
L53.6094 0
L7.32812 0
L7.32812 8.29688
Q12.9375 14.1094 22.625 23.8906
Q32.3281 33.6875 34.8125 36.5312
Q39.5469 41.8438 41.4219 45.5312
Q43.3125 49.2188 43.3125 52.7812
Q43.3125 58.5938 39.2344 62.25
Q35.1562 65.9219 28.6094 65.9219
Q23.9688 65.9219 18.8125 64.3125
Q13.6719 62.7031 7.8125 59.4219
L7.8125 69.3906
Q13.7656 71.7812 18.9375 73
Q24.125 74.2188 28.4219 74.2188
Q39.75 74.2188 46.4844 68.5469
Q53.2188 62.8906 53.2188 53.4219
Q53.2188 48.9219 51.5312 44.8906
Q49.8594 40.875 45.4062 35.4062
Q44.1875 33.9844 37.6406 27.2188
Q31.1094 20.4531 19.1875 8.29688" id="BitstreamVeraSans-Roman-32"/>
      </defs>
      <g transform="translate(200.319794815 152.328143491)scale(0.15 -0.15)">
       <use xlink:href="#BitstreamVeraSans-Roman-2d"/>
       <use x="36.083984375" xlink:href="#BitstreamVeraSans-Roman-32"/>
      </g>
     </g>
    </g>
    <g id="xtick_4">
     <g id="line2d_7">
      <g>
       <use style="stroke:#000000;stroke-width:0.5;" x="282.24" xlink:href="#m93b0483c22" y="136.930487241"/>
      </g>
     </g>
    </g>
    <g id="xtick_5">
     <g id="line2d_8">
      <g>
       <use style="stroke:#000000;stroke-width:0.5;" x="357.80043956" xlink:href="#m93b0483c22" y="136.930487241"/>
      </g>
     </g>
     <g id="text_4">
      <!-- 2 -->
      <g transform="translate(354.32934581 152.328143491)scale(0.15 -0.15)">
       <use xlink:href="#BitstreamVeraSans-Roman-32"/>
      </g>
     </g>
    </g>
    <g id="xtick_6">
     <g id="line2d_9">
      <g>
       <use style="stroke:#000000;stroke-width:0.5;" x="433.360879121" xlink:href="#m93b0483c22" y="136.930487241"/>
      </g>
     </g>
     <g id="text_5">
      <!-- 4 -->
      <g transform="translate(429.376504121 152.328143491)scale(0.15 -0.15)">
       <use xlink:href="#BitstreamVeraSans-Roman-34"/>
      </g>
     </g>
    </g>
    <g id="xtick_7">
     <g id="line2d_10">
      <g>
       <use style="stroke:#000000;stroke-width:0.5;" x="508.921318681" xlink:href="#m93b0483c22" y="136.930487241"/>
      </g>
     </g>
     <g id="text_6">
      <!-- 6 -->
      <g transform="translate(505.145537431 152.328143491)scale(0.15 -0.15)">
       <use xlink:href="#BitstreamVeraSans-Roman-36"/>
      </g>
     </g>
    </g>
    <g id="xtick_8">
     <g id="line2d_11">
      <defs>
       <path d="
M0 0
L0 -2" id="m177f7580d0" style="stroke:#000000;stroke-width:0.5;"/>
      </defs>
      <g>
       <use style="stroke:#000000;stroke-width:0.5;" x="17.7784615385" xlink:href="#m177f7580d0" y="136.930487241"/>
      </g>
     </g>
    </g>
    <g id="xtick_9">
     <g id="line2d_12">
      <g>
       <use style="stroke:#000000;stroke-width:0.5;" x="36.6685714286" xlink:href="#m177f7580d0" y="136.930487241"/>
      </g>
     </g>
    </g>
    <g id="xtick_10">
     <g id="line2d_13">
      <g>
       <use style="stroke:#000000;stroke-width:0.5;" x="74.4487912088" xlink:href="#m177f7580d0" y="136.930487241"/>
      </g>
     </g>
    </g>
    <g id="xtick_11">
     <g id="line2d_14">
      <g>
       <use style="stroke:#000000;stroke-width:0.5;" x="93.3389010989" xlink:href="#m177f7580d0" y="136.930487241"/>
      </g>
     </g>
    </g>
    <g id="xtick_12">
     <g id="line2d_15">
      <g>
       <use style="stroke:#000000;stroke-width:0.5;" x="112.229010989" xlink:href="#m177f7580d0" y="136.930487241"/>
      </g>
     </g>
    </g>
    <g id="xtick_13">
     <g id="line2d_16">
      <g>
       <use style="stroke:#000000;stroke-width:0.5;" x="150.009230769" xlink:href="#m177f7580d0" y="136.930487241"/>
      </g>
     </g>
    </g>
    <g id="xtick_14">
     <g id="line2d_17">
      <g>
       <use style="stroke:#000000;stroke-width:0.5;" x="168.899340659" xlink:href="#m177f7580d0" y="136.930487241"/>
      </g>
     </g>
    </g>
    <g id="xtick_15">
     <g id="line2d_18">
      <g>
       <use style="stroke:#000000;stroke-width:0.5;" x="187.789450549" xlink:href="#m177f7580d0" y="136.930487241"/>
      </g>
     </g>
    </g>
    <g id="xtick_16">
     <g id="line2d_19">
      <g>
       <use style="stroke:#000000;stroke-width:0.5;" x="225.56967033" xlink:href="#m177f7580d0" y="136.930487241"/>
      </g>
     </g>
    </g>
    <g id="xtick_17">
     <g id="line2d_20">
      <g>
       <use style="stroke:#000000;stroke-width:0.5;" x="244.45978022" xlink:href="#m177f7580d0" y="136.930487241"/>
      </g>
     </g>
    </g>
    <g id="xtick_18">
     <g id="line2d_21">
      <g>
       <use style="stroke:#000000;stroke-width:0.5;" x="263.34989011" xlink:href="#m177f7580d0" y="136.930487241"/>
      </g>
     </g>
    </g>
    <g id="xtick_19">
     <g id="line2d_22">
      <g>
       <use style="stroke:#000000;stroke-width:0.5;" x="301.13010989" xlink:href="#m177f7580d0" y="136.930487241"/>
      </g>
     </g>
    </g>
    <g id="xtick_20">
     <g id="line2d_23">
      <g>
       <use style="stroke:#000000;stroke-width:0.5;" x="320.02021978" xlink:href="#m177f7580d0" y="136.930487241"/>
      </g>
     </g>
    </g>
    <g id="xtick_21">
     <g id="line2d_24">
      <g>
       <use style="stroke:#000000;stroke-width:0.5;" x="338.91032967" xlink:href="#m177f7580d0" y="136.930487241"/>
      </g>
     </g>
    </g>
    <g id="xtick_22">
     <g id="line2d_25">
      <g>
       <use style="stroke:#000000;stroke-width:0.5;" x="376.690549451" xlink:href="#m177f7580d0" y="136.930487241"/>
      </g>
     </g>
    </g>
    <g id="xtick_23">
     <g id="line2d_26">
      <g>
       <use style="stroke:#000000;stroke-width:0.5;" x="395.580659341" xlink:href="#m177f7580d0" y="136.930487241"/>
      </g>
     </g>
    </g>
    <g id="xtick_24">
     <g id="line2d_27">
      <g>
       <use style="stroke:#000000;stroke-width:0.5;" x="414.470769231" xlink:href="#m177f7580d0" y="136.930487241"/>
      </g>
     </g>
    </g>
    <g id="xtick_25">
     <g id="line2d_28">
      <g>
       <use style="stroke:#000000;stroke-width:0.5;" x="452.250989011" xlink:href="#m177f7580d0" y="136.930487241"/>
      </g>
     </g>
    </g>
    <g id="xtick_26">
     <g id="line2d_29">
      <g>
       <use style="stroke:#000000;stroke-width:0.5;" x="471.141098901" xlink:href="#m177f7580d0" y="136.930487241"/>
      </g>
     </g>
    </g>
    <g id="xtick_27">
     <g id="line2d_30">
      <g>
       <use style="stroke:#000000;stroke-width:0.5;" x="490.031208791" xlink:href="#m177f7580d0" y="136.930487241"/>
      </g>
     </g>
    </g>
    <g id="xtick_28">
     <g id="line2d_31">
      <g>
       <use style="stroke:#000000;stroke-width:0.5;" x="527.811428571" xlink:href="#m177f7580d0" y="136.930487241"/>
      </g>
     </g>
    </g>
   </g>
   <g id="matplotlib.axis_2">
    <g id="ytick_1">
     <g id="line2d_32">
      <defs>
       <path d="
M0 0
L4 0" id="m728421d6d4" style="stroke:#000000;stroke-width:0.5;"/>
      </defs>
      <g>
       <use style="stroke:#000000;stroke-width:0.5;" x="282.24" xlink:href="#m728421d6d4" y="259.402380732"/>
      </g>
     </g>
     <g id="text_7">
      <!-- -3 -->
      <defs>
       <path d="
M40.5781 39.3125
Q47.6562 37.7969 51.625 33
Q55.6094 28.2188 55.6094 21.1875
Q55.6094 10.4062 48.1875 4.48438
Q40.7656 -1.42188 27.0938 -1.42188
Q22.5156 -1.42188 17.6562 -0.515625
Q12.7969 0.390625 7.625 2.20312
L7.625 11.7188
Q11.7188 9.32812 16.5938 8.10938
Q21.4844 6.89062 26.8125 6.89062
Q36.0781 6.89062 40.9375 10.5469
Q45.7969 14.2031 45.7969 21.1875
Q45.7969 27.6406 41.2812 31.2656
Q36.7656 34.9062 28.7188 34.9062
L20.2188 34.9062
L20.2188 43.0156
L29.1094 43.0156
Q36.375 43.0156 40.2344 45.9219
Q44.0938 48.8281 44.0938 54.2969
Q44.0938 59.9062 40.1094 62.9062
Q36.1406 65.9219 28.7188 65.9219
Q24.6562 65.9219 20.0156 65.0312
Q15.375 64.1562 9.8125 62.3125
L9.8125 71.0938
Q15.4375 72.6562 20.3438 73.4375
Q25.25 74.2188 29.5938 74.2188
Q40.8281 74.2188 47.3594 69.1094
Q53.9062 64.0156 53.9062 55.3281
Q53.9062 49.2656 50.4375 45.0938
Q46.9688 40.9219 40.5781 39.3125" id="BitstreamVeraSans-Roman-33"/>
      </defs>
      <g transform="translate(265.22046875 263.541443232)scale(0.15 -0.15)">
       <use xlink:href="#BitstreamVeraSans-Roman-2d"/>
       <use x="36.083984375" xlink:href="#BitstreamVeraSans-Roman-33"/>
      </g>
     </g>
    </g>
    <g id="ytick_2">
     <g id="line2d_33">
      <g>
       <use style="stroke:#000000;stroke-width:0.5;" x="282.24" xlink:href="#m728421d6d4" y="218.578416235"/>
      </g>
     </g>
     <g id="text_8">
      <!-- -2 -->
      <g transform="translate(265.52046875 222.717478735)scale(0.15 -0.15)">
       <use xlink:href="#BitstreamVeraSans-Roman-2d"/>
       <use x="36.083984375" xlink:href="#BitstreamVeraSans-Roman-32"/>
      </g>
     </g>
    </g>
    <g id="ytick_3">
     <g id="line2d_34">
      <g>
       <use style="stroke:#000000;stroke-width:0.5;" x="282.24" xlink:href="#m728421d6d4" y="177.754451738"/>
      </g>
     </g>
     <g id="text_9">
      <!-- -1 -->
      <defs>
       <path d="
M12.4062 8.29688
L28.5156 8.29688
L28.5156 63.9219
L10.9844 60.4062
L10.9844 69.3906
L28.4219 72.9062
L38.2812 72.9062
L38.2812 8.29688
L54.3906 8.29688
L54.3906 0
L12.4062 0
z
" id="BitstreamVeraSans-Roman-31"/>
      </defs>
      <g transform="translate(265.40328125 181.893514238)scale(0.15 -0.15)">
       <use xlink:href="#BitstreamVeraSans-Roman-2d"/>
       <use x="36.083984375" xlink:href="#BitstreamVeraSans-Roman-31"/>
      </g>
     </g>
    </g>
    <g id="ytick_4">
     <g id="line2d_35">
      <g>
       <use style="stroke:#000000;stroke-width:0.5;" x="282.24" xlink:href="#m728421d6d4" y="136.930487241"/>
      </g>
     </g>
    </g>
    <g id="ytick_5">
     <g id="line2d_36">
      <g>
       <use style="stroke:#000000;stroke-width:0.5;" x="282.24" xlink:href="#m728421d6d4" y="96.1065227441"/>
      </g>
     </g>
     <g id="text_10">
      <!-- 1 -->
      <g transform="translate(271.7290625 100.245585244)scale(0.15 -0.15)">
       <use xlink:href="#BitstreamVeraSans-Roman-31"/>
      </g>
     </g>
    </g>
    <g id="ytick_6">
     <g id="line2d_37">
      <g>
       <use style="stroke:#000000;stroke-width:0.5;" x="282.24" xlink:href="#m728421d6d4" y="55.282558247"/>
      </g>
     </g>
     <g id="text_11">
      <!-- 2 -->
      <g transform="translate(271.2978125 59.421620747)scale(0.15 -0.15)">
       <use xlink:href="#BitstreamVeraSans-Roman-32"/>
      </g>
     </g>
    </g>
    <g id="ytick_7">
     <g id="line2d_38">
      <g>
       <use style="stroke:#000000;stroke-width:0.5;" x="282.24" xlink:href="#m728421d6d4" y="14.45859375"/>
      </g>
     </g>
     <g id="text_12">
      <!-- 3 -->
      <g transform="translate(271.04234375 18.59765625)scale(0.15 -0.15)">
       <use xlink:href="#BitstreamVeraSans-Roman-33"/>
      </g>
     </g>
    </g>
    <g id="ytick_8">
     <g id="line2d_39">
      <defs>
       <path d="
M0 0
L2 0" id="mf0c55a9a47" style="stroke:#000000;stroke-width:0.5;"/>
      </defs>
      <g>
       <use style="stroke:#000000;stroke-width:0.5;" x="282.24" xlink:href="#mf0c55a9a47" y="251.237587833"/>
      </g>
     </g>
    </g>
    <g id="ytick_9">
     <g id="line2d_40">
      <g>
       <use style="stroke:#000000;stroke-width:0.5;" x="282.24" xlink:href="#mf0c55a9a47" y="243.072794933"/>
      </g>
     </g>
    </g>
    <g id="ytick_10">
     <g id="line2d_41">
      <g>
       <use style="stroke:#000000;stroke-width:0.5;" x="282.24" xlink:href="#mf0c55a9a47" y="234.908002034"/>
      </g>
     </g>
    </g>
    <g id="ytick_11">
     <g id="line2d_42">
      <g>
       <use style="stroke:#000000;stroke-width:0.5;" x="282.24" xlink:href="#mf0c55a9a47" y="226.743209135"/>
      </g>
     </g>
    </g>
    <g id="ytick_12">
     <g id="line2d_43">
      <g>
       <use style="stroke:#000000;stroke-width:0.5;" x="282.24" xlink:href="#mf0c55a9a47" y="210.413623336"/>
      </g>
     </g>
    </g>
    <g id="ytick_13">
     <g id="line2d_44">
      <g>
       <use style="stroke:#000000;stroke-width:0.5;" x="282.24" xlink:href="#mf0c55a9a47" y="202.248830436"/>
      </g>
     </g>
    </g>
    <g id="ytick_14">
     <g id="line2d_45">
      <g>
       <use style="stroke:#000000;stroke-width:0.5;" x="282.24" xlink:href="#mf0c55a9a47" y="194.084037537"/>
      </g>
     </g>
    </g>
    <g id="ytick_15">
     <g id="line2d_46">
      <g>
       <use style="stroke:#000000;stroke-width:0.5;" x="282.24" xlink:href="#mf0c55a9a47" y="185.919244638"/>
      </g>
     </g>
    </g>
    <g id="ytick_16">
     <g id="line2d_47">
      <g>
       <use style="stroke:#000000;stroke-width:0.5;" x="282.24" xlink:href="#mf0c55a9a47" y="177.754451738"/>
      </g>
     </g>
    </g>
    <g id="ytick_17">
     <g id="line2d_48">
      <g>
       <use style="stroke:#000000;stroke-width:0.5;" x="282.24" xlink:href="#mf0c55a9a47" y="169.589658839"/>
      </g>
     </g>
    </g>
    <g id="ytick_18">
     <g id="line2d_49">
      <g>
       <use style="stroke:#000000;stroke-width:0.5;" x="282.24" xlink:href="#mf0c55a9a47" y="161.424865939"/>
      </g>
     </g>
    </g>
    <g id="ytick_19">
     <g id="line2d_50">
      <g>
       <use style="stroke:#000000;stroke-width:0.5;" x="282.24" xlink:href="#mf0c55a9a47" y="153.26007304"/>
      </g>
     </g>
    </g>
    <g id="ytick_20">
     <g id="line2d_51">
      <g>
       <use style="stroke:#000000;stroke-width:0.5;" x="282.24" xlink:href="#mf0c55a9a47" y="145.095280141"/>
      </g>
     </g>
    </g>
    <g id="ytick_21">
     <g id="line2d_52">
      <g>
       <use style="stroke:#000000;stroke-width:0.5;" x="282.24" xlink:href="#mf0c55a9a47" y="136.930487241"/>
      </g>
     </g>
    </g>
    <g id="ytick_22">
     <g id="line2d_53">
      <g>
       <use style="stroke:#000000;stroke-width:0.5;" x="282.24" xlink:href="#mf0c55a9a47" y="128.765694342"/>
      </g>
     </g>
    </g>
    <g id="ytick_23">
     <g id="line2d_54">
      <g>
       <use style="stroke:#000000;stroke-width:0.5;" x="282.24" xlink:href="#mf0c55a9a47" y="120.600901442"/>
      </g>
     </g>
    </g>
    <g id="ytick_24">
     <g id="line2d_55">
      <g>
       <use style="stroke:#000000;stroke-width:0.5;" x="282.24" xlink:href="#mf0c55a9a47" y="112.436108543"/>
      </g>
     </g>
    </g>
    <g id="ytick_25">
     <g id="line2d_56">
      <g>
       <use style="stroke:#000000;stroke-width:0.5;" x="282.24" xlink:href="#mf0c55a9a47" y="104.271315643"/>
      </g>
     </g>
    </g>
    <g id="ytick_26">
     <g id="line2d_57">
      <g>
       <use style="stroke:#000000;stroke-width:0.5;" x="282.24" xlink:href="#mf0c55a9a47" y="96.1065227441"/>
      </g>
     </g>
    </g>
    <g id="ytick_27">
     <g id="line2d_58">
      <g>
       <use style="stroke:#000000;stroke-width:0.5;" x="282.24" xlink:href="#mf0c55a9a47" y="87.9417298447"/>
      </g>
     </g>
    </g>
    <g id="ytick_28">
     <g id="line2d_59">
      <g>
       <use style="stroke:#000000;stroke-width:0.5;" x="282.24" xlink:href="#mf0c55a9a47" y="79.7769369453"/>
      </g>
     </g>
    </g>
    <g id="ytick_29">
     <g id="line2d_60">
      <g>
       <use style="stroke:#000000;stroke-width:0.5;" x="282.24" xlink:href="#mf0c55a9a47" y="71.6121440459"/>
      </g>
     </g>
    </g>
    <g id="ytick_30">
     <g id="line2d_61">
      <g>
       <use style="stroke:#000000;stroke-width:0.5;" x="282.24" xlink:href="#mf0c55a9a47" y="63.4473511464"/>
      </g>
     </g>
    </g>
    <g id="ytick_31">
     <g id="line2d_62">
      <g>
       <use style="stroke:#000000;stroke-width:0.5;" x="282.24" xlink:href="#mf0c55a9a47" y="55.282558247"/>
      </g>
     </g>
    </g>
    <g id="ytick_32">
     <g id="line2d_63">
      <g>
       <use style="stroke:#000000;stroke-width:0.5;" x="282.24" xlink:href="#mf0c55a9a47" y="47.1177653476"/>
      </g>
     </g>
    </g>
    <g id="ytick_33">
     <g id="line2d_64">
      <g>
       <use style="stroke:#000000;stroke-width:0.5;" x="282.24" xlink:href="#mf0c55a9a47" y="38.9529724482"/>
      </g>
     </g>
    </g>
    <g id="ytick_34">
     <g id="line2d_65">
      <g>
       <use style="stroke:#000000;stroke-width:0.5;" x="282.24" xlink:href="#mf0c55a9a47" y="30.7881795488"/>
      </g>
     </g>
    </g>
    <g id="ytick_35">
     <g id="line2d_66">
      <g>
       <use style="stroke:#000000;stroke-width:0.5;" x="282.24" xlink:href="#mf0c55a9a47" y="22.6233866494"/>
      </g>
     </g>
    </g>
   </g>
   <g id="patch_3">
    <path d="
M7.2 136.93
L557.28 136.93" style="fill:none;stroke:#000000;stroke-width:0.8;"/>
   </g>
   <g id="patch_4">
    <path d="
M282.24 264.301
L282.24 9.55972" style="fill:none;stroke:#000000;stroke-width:0.8;"/>
   </g>
  </g>
 </g>
 <defs>
  <clipPath id="pda5abad45c">
   <rect height="254.741538462" width="550.08" x="7.2" y="9.55971801036"/>
  </clipPath>
 </defs>
</svg>
